<?xml version="1.0" encoding="UTF-8"?>
<svg xmlns="http://www.w3.org/2000/svg" xmlns:xlink="http://www.w3.org/1999/xlink" width="64px" height="37px" viewBox="0 0 63 37" version="1.1">
<g id="surface1">
<path style=" stroke:none;fill-rule:nonzero;fill:rgb(0%,0%,0%);fill-opacity:1;" d="M 31.25 3.105469 C 31.15625 3.359375 30.445312 5.589844 29.667969 8.054688 L 28.226562 12.539062 L 22.914062 12.65625 L 17.582031 12.769531 L 21.929688 15.945312 L 26.304688 19.144531 L 24.585938 24.089844 C 23.671875 26.828125 22.914062 29.085938 22.960938 29.128906 C 22.984375 29.152344 24.90625 27.796875 27.21875 26.09375 C 29.898438 24.113281 31.523438 23.078125 31.683594 23.195312 C 33.171875 24.367188 39.902344 29.015625 39.96875 28.945312 C 40.015625 28.878906 39.328125 26.691406 38.460938 24.046875 C 37.476562 21.054688 36.949219 19.167969 37.0625 19.007812 C 37.175781 18.867188 39.125 17.394531 41.390625 15.761719 L 45.511719 12.769531 L 40.175781 12.703125 L 34.84375 12.65625 L 33.398438 8.328125 C 32.621094 5.960938 31.84375 3.703125 31.683594 3.335938 C 31.410156 2.714844 31.363281 2.691406 31.25 3.105469 Z M 31.25 3.105469 "/>
<path style=" stroke:none;fill-rule:nonzero;fill:rgb(0%,0%,0%);fill-opacity:1;" d="M 9.636719 21.398438 L 8.628906 24.621094 L 5.082031 24.667969 L 1.558594 24.734375 L 2.65625 25.542969 C 3.273438 25.976562 4.511719 26.875 5.402344 27.542969 L 7.050781 28.738281 L 6.042969 31.890625 C 5.496094 33.640625 5.082031 35.089844 5.105469 35.136719 C 5.195312 35.207031 6.25 34.492188 9.292969 32.304688 L 10.691406 31.316406 L 13.300781 33.25 C 14.742188 34.308594 15.933594 35.066406 15.980469 34.976562 C 16.023438 34.859375 15.613281 33.410156 15.085938 31.777344 C 14.558594 30.121094 14.171875 28.714844 14.214844 28.671875 C 14.261719 28.625 15.519531 27.703125 17.03125 26.597656 L 19.734375 24.621094 L 12.867188 24.621094 L 11.789062 21.398438 C 11.195312 19.628906 10.714844 18.179688 10.691406 18.179688 C 10.667969 18.179688 10.1875 19.628906 9.636719 21.398438 Z M 9.636719 21.398438 "/>
<path style=" stroke:none;fill-rule:nonzero;fill:rgb(0%,0%,0%);fill-opacity:1;" d="M 51.300781 21.398438 L 50.292969 24.597656 L 46.859375 24.667969 L 43.449219 24.734375 L 44.546875 25.542969 C 45.167969 25.976562 46.402344 26.875 47.296875 27.542969 L 48.945312 28.738281 L 47.9375 31.890625 C 47.386719 33.640625 46.976562 35.089844 47 35.136719 C 47.042969 35.160156 48.257812 34.332031 49.722656 33.273438 L 52.355469 31.339844 L 55.078125 33.25 C 56.566406 34.308594 57.847656 35.113281 57.894531 35.066406 C 57.941406 35.019531 57.484375 33.59375 56.886719 31.867188 C 56.292969 30.167969 55.835938 28.714844 55.878906 28.671875 C 55.925781 28.625 57.253906 27.703125 58.8125 26.597656 L 61.648438 24.621094 L 54.53125 24.621094 L 53.453125 21.398438 C 52.859375 19.628906 52.378906 18.179688 52.355469 18.179688 C 52.332031 18.179688 51.851562 19.628906 51.300781 21.398438 Z M 51.300781 21.398438 "/>
</g>
</svg>
